<mxfile host="app.diagrams.net" agent="Mozilla/5.0 (Windows NT 10.0; Win64; x64; rv:132.0) Gecko/20100101 Firefox/132.0" version="24.8.4" pages="2">
  <diagram name="ER-Diagram" id="NItrLApwDLeXo-r-cU7K">
    <mxGraphModel dx="2261" dy="1943" grid="1" gridSize="10" guides="1" tooltips="1" connect="1" arrows="1" fold="1" page="1" pageScale="1" pageWidth="827" pageHeight="1169" math="0" shadow="0">
      <root>
        <mxCell id="0" />
        <mxCell id="1" parent="0" />
        <mxCell id="vsiteA5Ip13MB5dsXXvn-1" value="Спортсмен" style="swimlane;fontStyle=0;childLayout=stackLayout;horizontal=1;startSize=30;horizontalStack=0;resizeParent=1;resizeParentMax=0;resizeLast=0;collapsible=1;marginBottom=0;whiteSpace=wrap;html=1;" parent="1" vertex="1">
          <mxGeometry x="160" y="-110" width="140" height="370" as="geometry" />
        </mxCell>
        <mxCell id="vsiteA5Ip13MB5dsXXvn-2" value="*Логин" style="text;strokeColor=none;fillColor=none;align=left;verticalAlign=middle;spacingLeft=4;spacingRight=4;overflow=hidden;points=[[0,0.5],[1,0.5]];portConstraint=eastwest;rotatable=0;whiteSpace=wrap;html=1;" parent="vsiteA5Ip13MB5dsXXvn-1" vertex="1">
          <mxGeometry y="30" width="140" height="30" as="geometry" />
        </mxCell>
        <mxCell id="cUmQrSe35AVpuAPvbp9K-2" value="пароль" style="text;strokeColor=none;fillColor=none;align=left;verticalAlign=middle;spacingLeft=4;spacingRight=4;overflow=hidden;points=[[0,0.5],[1,0.5]];portConstraint=eastwest;rotatable=0;whiteSpace=wrap;html=1;" parent="vsiteA5Ip13MB5dsXXvn-1" vertex="1">
          <mxGeometry y="60" width="140" height="30" as="geometry" />
        </mxCell>
        <mxCell id="vsiteA5Ip13MB5dsXXvn-3" value="ФИО" style="text;strokeColor=none;fillColor=none;align=left;verticalAlign=middle;spacingLeft=4;spacingRight=4;overflow=hidden;points=[[0,0.5],[1,0.5]];portConstraint=eastwest;rotatable=0;whiteSpace=wrap;html=1;" parent="vsiteA5Ip13MB5dsXXvn-1" vertex="1">
          <mxGeometry y="90" width="140" height="30" as="geometry" />
        </mxCell>
        <mxCell id="mQSDM0axjjIzorObbkHt-10" value="Пол" style="text;strokeColor=none;fillColor=none;align=left;verticalAlign=middle;spacingLeft=4;spacingRight=4;overflow=hidden;points=[[0,0.5],[1,0.5]];portConstraint=eastwest;rotatable=0;whiteSpace=wrap;html=1;" parent="vsiteA5Ip13MB5dsXXvn-1" vertex="1">
          <mxGeometry y="120" width="140" height="40" as="geometry" />
        </mxCell>
        <mxCell id="mQSDM0axjjIzorObbkHt-13" value="Вес" style="text;strokeColor=none;fillColor=none;align=left;verticalAlign=middle;spacingLeft=4;spacingRight=4;overflow=hidden;points=[[0,0.5],[1,0.5]];portConstraint=eastwest;rotatable=0;whiteSpace=wrap;html=1;" parent="vsiteA5Ip13MB5dsXXvn-1" vertex="1">
          <mxGeometry y="160" width="140" height="40" as="geometry" />
        </mxCell>
        <mxCell id="mQSDM0axjjIzorObbkHt-11" value="Рост" style="text;strokeColor=none;fillColor=none;align=left;verticalAlign=middle;spacingLeft=4;spacingRight=4;overflow=hidden;points=[[0,0.5],[1,0.5]];portConstraint=eastwest;rotatable=0;whiteSpace=wrap;html=1;" parent="vsiteA5Ip13MB5dsXXvn-1" vertex="1">
          <mxGeometry y="200" width="140" height="40" as="geometry" />
        </mxCell>
        <mxCell id="mQSDM0axjjIzorObbkHt-12" value="Возраст" style="text;strokeColor=none;fillColor=none;align=left;verticalAlign=middle;spacingLeft=4;spacingRight=4;overflow=hidden;points=[[0,0.5],[1,0.5]];portConstraint=eastwest;rotatable=0;whiteSpace=wrap;html=1;" parent="vsiteA5Ip13MB5dsXXvn-1" vertex="1">
          <mxGeometry y="240" width="140" height="40" as="geometry" />
        </mxCell>
        <mxCell id="W9O1m4vv0hVvTlsy-4cD-2" value="Ссылка на соцсети" style="text;strokeColor=none;fillColor=none;align=left;verticalAlign=middle;spacingLeft=4;spacingRight=4;overflow=hidden;points=[[0,0.5],[1,0.5]];portConstraint=eastwest;rotatable=0;whiteSpace=wrap;html=1;" parent="vsiteA5Ip13MB5dsXXvn-1" vertex="1">
          <mxGeometry y="280" width="140" height="30" as="geometry" />
        </mxCell>
        <mxCell id="hlUvXbGLe1bzWFbIZZA5-7" value="Результаты выполнения упражнений" style="text;strokeColor=#b85450;fillColor=#f8cecc;align=left;verticalAlign=middle;spacingLeft=4;spacingRight=4;overflow=hidden;points=[[0,0.5],[1,0.5]];portConstraint=eastwest;rotatable=0;whiteSpace=wrap;html=1;" parent="vsiteA5Ip13MB5dsXXvn-1" vertex="1">
          <mxGeometry y="310" width="140" height="60" as="geometry" />
        </mxCell>
        <mxCell id="vsiteA5Ip13MB5dsXXvn-9" value="Упражнение" style="swimlane;fontStyle=0;childLayout=stackLayout;horizontal=1;startSize=30;horizontalStack=0;resizeParent=1;resizeParentMax=0;resizeLast=0;collapsible=1;marginBottom=0;whiteSpace=wrap;html=1;" parent="1" vertex="1">
          <mxGeometry x="-80" y="270" width="140" height="90" as="geometry" />
        </mxCell>
        <mxCell id="vsiteA5Ip13MB5dsXXvn-10" value="*Название" style="text;strokeColor=none;fillColor=none;align=left;verticalAlign=middle;spacingLeft=4;spacingRight=4;overflow=hidden;points=[[0,0.5],[1,0.5]];portConstraint=eastwest;rotatable=0;whiteSpace=wrap;html=1;" parent="vsiteA5Ip13MB5dsXXvn-9" vertex="1">
          <mxGeometry y="30" width="140" height="30" as="geometry" />
        </mxCell>
        <mxCell id="vsiteA5Ip13MB5dsXXvn-11" value="Техника выполнения" style="text;strokeColor=none;fillColor=none;align=left;verticalAlign=middle;spacingLeft=4;spacingRight=4;overflow=hidden;points=[[0,0.5],[1,0.5]];portConstraint=eastwest;rotatable=0;whiteSpace=wrap;html=1;" parent="vsiteA5Ip13MB5dsXXvn-9" vertex="1">
          <mxGeometry y="60" width="140" height="30" as="geometry" />
        </mxCell>
        <mxCell id="vsiteA5Ip13MB5dsXXvn-13" value="Публикация" style="swimlane;fontStyle=0;childLayout=stackLayout;horizontal=1;startSize=30;horizontalStack=0;resizeParent=1;resizeParentMax=0;resizeLast=0;collapsible=1;marginBottom=0;whiteSpace=wrap;html=1;" parent="1" vertex="1">
          <mxGeometry x="687" y="160" width="140" height="100" as="geometry" />
        </mxCell>
        <mxCell id="hlUvXbGLe1bzWFbIZZA5-13" value="*Дата и время публикации" style="text;strokeColor=none;fillColor=none;align=left;verticalAlign=middle;spacingLeft=4;spacingRight=4;overflow=hidden;points=[[0,0.5],[1,0.5]];portConstraint=eastwest;rotatable=0;whiteSpace=wrap;html=1;" parent="vsiteA5Ip13MB5dsXXvn-13" vertex="1">
          <mxGeometry y="30" width="140" height="40" as="geometry" />
        </mxCell>
        <mxCell id="vsiteA5Ip13MB5dsXXvn-15" value="Текст" style="text;strokeColor=none;fillColor=none;align=left;verticalAlign=middle;spacingLeft=4;spacingRight=4;overflow=hidden;points=[[0,0.5],[1,0.5]];portConstraint=eastwest;rotatable=0;whiteSpace=wrap;html=1;" parent="vsiteA5Ip13MB5dsXXvn-13" vertex="1">
          <mxGeometry y="70" width="140" height="30" as="geometry" />
        </mxCell>
        <mxCell id="hlUvXbGLe1bzWFbIZZA5-1" value="Тренер" style="swimlane;fontStyle=0;childLayout=stackLayout;horizontal=1;startSize=30;horizontalStack=0;resizeParent=1;resizeParentMax=0;resizeLast=0;collapsible=1;marginBottom=0;whiteSpace=wrap;html=1;" parent="1" vertex="1">
          <mxGeometry x="420" y="-110" width="140" height="380" as="geometry" />
        </mxCell>
        <mxCell id="hlUvXbGLe1bzWFbIZZA5-2" value="*Логин" style="text;strokeColor=none;fillColor=none;align=left;verticalAlign=middle;spacingLeft=4;spacingRight=4;overflow=hidden;points=[[0,0.5],[1,0.5]];portConstraint=eastwest;rotatable=0;whiteSpace=wrap;html=1;" parent="hlUvXbGLe1bzWFbIZZA5-1" vertex="1">
          <mxGeometry y="30" width="140" height="30" as="geometry" />
        </mxCell>
        <mxCell id="cUmQrSe35AVpuAPvbp9K-3" value="пароль" style="text;strokeColor=none;fillColor=none;align=left;verticalAlign=middle;spacingLeft=4;spacingRight=4;overflow=hidden;points=[[0,0.5],[1,0.5]];portConstraint=eastwest;rotatable=0;whiteSpace=wrap;html=1;" parent="hlUvXbGLe1bzWFbIZZA5-1" vertex="1">
          <mxGeometry y="60" width="140" height="30" as="geometry" />
        </mxCell>
        <mxCell id="hlUvXbGLe1bzWFbIZZA5-3" value="ФИО" style="text;strokeColor=none;fillColor=none;align=left;verticalAlign=middle;spacingLeft=4;spacingRight=4;overflow=hidden;points=[[0,0.5],[1,0.5]];portConstraint=eastwest;rotatable=0;whiteSpace=wrap;html=1;" parent="hlUvXbGLe1bzWFbIZZA5-1" vertex="1">
          <mxGeometry y="90" width="140" height="30" as="geometry" />
        </mxCell>
        <mxCell id="mQSDM0axjjIzorObbkHt-2" value="Пол" style="text;strokeColor=none;fillColor=none;align=left;verticalAlign=middle;spacingLeft=4;spacingRight=4;overflow=hidden;points=[[0,0.5],[1,0.5]];portConstraint=eastwest;rotatable=0;whiteSpace=wrap;html=1;" parent="hlUvXbGLe1bzWFbIZZA5-1" vertex="1">
          <mxGeometry y="120" width="140" height="40" as="geometry" />
        </mxCell>
        <mxCell id="mQSDM0axjjIzorObbkHt-4" value="Вес" style="text;strokeColor=none;fillColor=none;align=left;verticalAlign=middle;spacingLeft=4;spacingRight=4;overflow=hidden;points=[[0,0.5],[1,0.5]];portConstraint=eastwest;rotatable=0;whiteSpace=wrap;html=1;" parent="hlUvXbGLe1bzWFbIZZA5-1" vertex="1">
          <mxGeometry y="160" width="140" height="40" as="geometry" />
        </mxCell>
        <mxCell id="mQSDM0axjjIzorObbkHt-3" value="Рост" style="text;strokeColor=none;fillColor=none;align=left;verticalAlign=middle;spacingLeft=4;spacingRight=4;overflow=hidden;points=[[0,0.5],[1,0.5]];portConstraint=eastwest;rotatable=0;whiteSpace=wrap;html=1;" parent="hlUvXbGLe1bzWFbIZZA5-1" vertex="1">
          <mxGeometry y="200" width="140" height="40" as="geometry" />
        </mxCell>
        <mxCell id="mQSDM0axjjIzorObbkHt-5" value="Возраст" style="text;strokeColor=none;fillColor=none;align=left;verticalAlign=middle;spacingLeft=4;spacingRight=4;overflow=hidden;points=[[0,0.5],[1,0.5]];portConstraint=eastwest;rotatable=0;whiteSpace=wrap;html=1;" parent="hlUvXbGLe1bzWFbIZZA5-1" vertex="1">
          <mxGeometry y="240" width="140" height="40" as="geometry" />
        </mxCell>
        <mxCell id="hlUvXbGLe1bzWFbIZZA5-6" value="Индивидуальные достижения" style="text;strokeColor=none;fillColor=none;align=left;verticalAlign=middle;spacingLeft=4;spacingRight=4;overflow=hidden;points=[[0,0.5],[1,0.5]];portConstraint=eastwest;rotatable=0;whiteSpace=wrap;html=1;" parent="hlUvXbGLe1bzWFbIZZA5-1" vertex="1">
          <mxGeometry y="280" width="140" height="40" as="geometry" />
        </mxCell>
        <mxCell id="hlUvXbGLe1bzWFbIZZA5-8" value="Результаты выполнения упражнений" style="text;strokeColor=#b85450;fillColor=#f8cecc;align=left;verticalAlign=middle;spacingLeft=4;spacingRight=4;overflow=hidden;points=[[0,0.5],[1,0.5]];portConstraint=eastwest;rotatable=0;whiteSpace=wrap;html=1;" parent="hlUvXbGLe1bzWFbIZZA5-1" vertex="1">
          <mxGeometry y="320" width="140" height="60" as="geometry" />
        </mxCell>
        <mxCell id="hlUvXbGLe1bzWFbIZZA5-9" value="Результат выполнения упражнения" style="swimlane;fontStyle=0;childLayout=stackLayout;horizontal=1;startSize=30;horizontalStack=0;resizeParent=1;resizeParentMax=0;resizeLast=0;collapsible=1;marginBottom=0;whiteSpace=wrap;html=1;" parent="1" vertex="1">
          <mxGeometry x="180" y="350" width="140" height="200" as="geometry" />
        </mxCell>
        <mxCell id="hlUvXbGLe1bzWFbIZZA5-10" value="*Название упражнения" style="text;strokeColor=#b85450;fillColor=#f8cecc;align=left;verticalAlign=middle;spacingLeft=4;spacingRight=4;overflow=hidden;points=[[0,0.5],[1,0.5]];portConstraint=eastwest;rotatable=0;whiteSpace=wrap;html=1;" parent="hlUvXbGLe1bzWFbIZZA5-9" vertex="1">
          <mxGeometry y="30" width="140" height="30" as="geometry" />
        </mxCell>
        <mxCell id="hlUvXbGLe1bzWFbIZZA5-19" value="*Дата выполнения" style="text;strokeColor=none;fillColor=none;align=left;verticalAlign=middle;spacingLeft=4;spacingRight=4;overflow=hidden;points=[[0,0.5],[1,0.5]];portConstraint=eastwest;rotatable=0;whiteSpace=wrap;html=1;" parent="hlUvXbGLe1bzWFbIZZA5-9" vertex="1">
          <mxGeometry y="60" width="140" height="30" as="geometry" />
        </mxCell>
        <mxCell id="hlUvXbGLe1bzWFbIZZA5-11" value="Вес" style="text;strokeColor=none;fillColor=none;align=left;verticalAlign=middle;spacingLeft=4;spacingRight=4;overflow=hidden;points=[[0,0.5],[1,0.5]];portConstraint=eastwest;rotatable=0;whiteSpace=wrap;html=1;" parent="hlUvXbGLe1bzWFbIZZA5-9" vertex="1">
          <mxGeometry y="90" width="140" height="30" as="geometry" />
        </mxCell>
        <mxCell id="hlUvXbGLe1bzWFbIZZA5-12" value="Количество повторений" style="text;strokeColor=none;fillColor=none;align=left;verticalAlign=middle;spacingLeft=4;spacingRight=4;overflow=hidden;points=[[0,0.5],[1,0.5]];portConstraint=eastwest;rotatable=0;whiteSpace=wrap;html=1;" parent="hlUvXbGLe1bzWFbIZZA5-9" vertex="1">
          <mxGeometry y="120" width="140" height="40" as="geometry" />
        </mxCell>
        <mxCell id="hlUvXbGLe1bzWFbIZZA5-18" value="Одноповторный максимум" style="text;strokeColor=none;fillColor=none;align=left;verticalAlign=middle;spacingLeft=4;spacingRight=4;overflow=hidden;points=[[0,0.5],[1,0.5]];portConstraint=eastwest;rotatable=0;whiteSpace=wrap;html=1;" parent="hlUvXbGLe1bzWFbIZZA5-9" vertex="1">
          <mxGeometry y="160" width="140" height="40" as="geometry" />
        </mxCell>
        <mxCell id="hlUvXbGLe1bzWFbIZZA5-14" value="Нормативы" style="swimlane;fontStyle=0;childLayout=stackLayout;horizontal=1;startSize=30;horizontalStack=0;resizeParent=1;resizeParentMax=0;resizeLast=0;collapsible=1;marginBottom=0;whiteSpace=wrap;html=1;" parent="1" vertex="1">
          <mxGeometry x="-70" y="90" width="140" height="90" as="geometry" />
        </mxCell>
        <mxCell id="hlUvXbGLe1bzWFbIZZA5-16" value="Нормативы" style="text;strokeColor=#b85450;fillColor=#f8cecc;align=left;verticalAlign=middle;spacingLeft=4;spacingRight=4;overflow=hidden;points=[[0,0.5],[1,0.5]];portConstraint=eastwest;rotatable=0;whiteSpace=wrap;html=1;" parent="hlUvXbGLe1bzWFbIZZA5-14" vertex="1">
          <mxGeometry y="30" width="140" height="30" as="geometry" />
        </mxCell>
        <mxCell id="hlUvXbGLe1bzWFbIZZA5-17" value="Мировой рекорд" style="text;strokeColor=none;fillColor=none;align=left;verticalAlign=middle;spacingLeft=4;spacingRight=4;overflow=hidden;points=[[0,0.5],[1,0.5]];portConstraint=eastwest;rotatable=0;whiteSpace=wrap;html=1;" parent="hlUvXbGLe1bzWFbIZZA5-14" vertex="1">
          <mxGeometry y="60" width="140" height="30" as="geometry" />
        </mxCell>
        <mxCell id="hlUvXbGLe1bzWFbIZZA5-20" value="" style="edgeStyle=entityRelationEdgeStyle;fontSize=12;html=1;endArrow=ERmany;rounded=0;" parent="1" source="hlUvXbGLe1bzWFbIZZA5-1" target="vsiteA5Ip13MB5dsXXvn-13" edge="1">
          <mxGeometry width="100" height="100" relative="1" as="geometry">
            <mxPoint x="460" y="290" as="sourcePoint" />
            <mxPoint x="560" y="190" as="targetPoint" />
          </mxGeometry>
        </mxCell>
        <mxCell id="hlUvXbGLe1bzWFbIZZA5-21" value="" style="edgeStyle=entityRelationEdgeStyle;fontSize=12;html=1;endArrow=ERmany;rounded=0;" parent="1" source="vsiteA5Ip13MB5dsXXvn-1" target="hlUvXbGLe1bzWFbIZZA5-9" edge="1">
          <mxGeometry width="100" height="100" relative="1" as="geometry">
            <mxPoint x="430" y="260" as="sourcePoint" />
            <mxPoint x="530" y="160" as="targetPoint" />
          </mxGeometry>
        </mxCell>
        <mxCell id="hlUvXbGLe1bzWFbIZZA5-23" value="*" style="text;html=1;align=center;verticalAlign=middle;whiteSpace=wrap;rounded=0;" parent="1" vertex="1">
          <mxGeometry x="300" y="430" width="60" height="30" as="geometry" />
        </mxCell>
        <mxCell id="hlUvXbGLe1bzWFbIZZA5-24" value="" style="edgeStyle=entityRelationEdgeStyle;fontSize=12;html=1;endArrow=none;rounded=0;endFill=0;startArrow=ERmany;startFill=0;" parent="1" source="hlUvXbGLe1bzWFbIZZA5-14" target="vsiteA5Ip13MB5dsXXvn-9" edge="1">
          <mxGeometry width="100" height="100" relative="1" as="geometry">
            <mxPoint x="680" y="410" as="sourcePoint" />
            <mxPoint x="780" y="310" as="targetPoint" />
          </mxGeometry>
        </mxCell>
        <mxCell id="hlUvXbGLe1bzWFbIZZA5-25" value="Оценка" style="swimlane;fontStyle=0;childLayout=stackLayout;horizontal=1;startSize=26;horizontalStack=0;resizeParent=1;resizeParentMax=0;resizeLast=0;collapsible=1;marginBottom=0;align=center;fontSize=14;" parent="1" vertex="1">
          <mxGeometry x="400" y="300" width="160" height="86" as="geometry" />
        </mxCell>
        <mxCell id="hlUvXbGLe1bzWFbIZZA5-26" value="Рейтинг (кол-во звёзд)" style="text;strokeColor=none;fillColor=none;spacingLeft=4;spacingRight=4;overflow=hidden;rotatable=0;points=[[0,0.5],[1,0.5]];portConstraint=eastwest;fontSize=12;whiteSpace=wrap;html=1;" parent="hlUvXbGLe1bzWFbIZZA5-25" vertex="1">
          <mxGeometry y="26" width="160" height="30" as="geometry" />
        </mxCell>
        <mxCell id="hlUvXbGLe1bzWFbIZZA5-27" value="комментарий" style="text;strokeColor=none;fillColor=none;spacingLeft=4;spacingRight=4;overflow=hidden;rotatable=0;points=[[0,0.5],[1,0.5]];portConstraint=eastwest;fontSize=12;whiteSpace=wrap;html=1;" parent="hlUvXbGLe1bzWFbIZZA5-25" vertex="1">
          <mxGeometry y="56" width="160" height="30" as="geometry" />
        </mxCell>
        <mxCell id="hlUvXbGLe1bzWFbIZZA5-29" value="" style="edgeStyle=entityRelationEdgeStyle;fontSize=12;html=1;endArrow=ERmany;rounded=0;" parent="1" source="vsiteA5Ip13MB5dsXXvn-15" target="hlUvXbGLe1bzWFbIZZA5-26" edge="1">
          <mxGeometry width="100" height="100" relative="1" as="geometry">
            <mxPoint x="535" y="430" as="sourcePoint" />
            <mxPoint x="575" y="540" as="targetPoint" />
            <Array as="points">
              <mxPoint x="585" y="505" />
              <mxPoint x="810" y="480" />
            </Array>
          </mxGeometry>
        </mxCell>
        <mxCell id="Bz0FK3TL5ZXRP86oG1LG-1" value="*" style="text;html=1;align=center;verticalAlign=middle;whiteSpace=wrap;rounded=0;" parent="1" vertex="1">
          <mxGeometry x="540" y="320" width="60" height="30" as="geometry" />
        </mxCell>
        <mxCell id="Bz0FK3TL5ZXRP86oG1LG-3" value="" style="edgeStyle=entityRelationEdgeStyle;fontSize=12;html=1;endArrow=ERmany;rounded=0;exitX=1;exitY=0.5;exitDx=0;exitDy=0;" parent="1" source="hlUvXbGLe1bzWFbIZZA5-7" target="hlUvXbGLe1bzWFbIZZA5-26" edge="1">
          <mxGeometry width="100" height="100" relative="1" as="geometry">
            <mxPoint x="320" y="200" as="sourcePoint" />
            <mxPoint x="365" y="539.9999999999999" as="targetPoint" />
            <Array as="points">
              <mxPoint x="-65" y="318" />
              <mxPoint x="320" y="300" />
              <mxPoint x="385" y="290" />
              <mxPoint x="310" y="460" />
              <mxPoint x="360" y="500" />
            </Array>
          </mxGeometry>
        </mxCell>
        <mxCell id="Bz0FK3TL5ZXRP86oG1LG-6" value="" style="edgeStyle=entityRelationEdgeStyle;fontSize=12;html=1;endArrow=ERmany;rounded=0;" parent="1" source="hlUvXbGLe1bzWFbIZZA5-1" target="hlUvXbGLe1bzWFbIZZA5-27" edge="1">
          <mxGeometry width="100" height="100" relative="1" as="geometry">
            <mxPoint x="450" y="360" as="sourcePoint" />
            <mxPoint x="650" y="560" as="targetPoint" />
            <Array as="points">
              <mxPoint x="750" y="350" />
            </Array>
          </mxGeometry>
        </mxCell>
        <mxCell id="Bz0FK3TL5ZXRP86oG1LG-7" value="" style="edgeStyle=entityRelationEdgeStyle;fontSize=12;html=1;endArrow=ERmany;rounded=0;exitX=1;exitY=0.5;exitDx=0;exitDy=0;" parent="1" source="vsiteA5Ip13MB5dsXXvn-11" target="hlUvXbGLe1bzWFbIZZA5-9" edge="1">
          <mxGeometry width="100" height="100" relative="1" as="geometry">
            <mxPoint x="240" y="380" as="sourcePoint" />
            <mxPoint x="340" y="280" as="targetPoint" />
          </mxGeometry>
        </mxCell>
        <mxCell id="5Ujj6KbRmRv98WTIo_L6-1" value="" style="edgeStyle=entityRelationEdgeStyle;fontSize=12;html=1;endArrow=ERmany;rounded=0;entryX=1;entryY=0.5;entryDx=0;entryDy=0;" parent="1" source="hlUvXbGLe1bzWFbIZZA5-1" target="hlUvXbGLe1bzWFbIZZA5-10" edge="1">
          <mxGeometry width="100" height="100" relative="1" as="geometry">
            <mxPoint x="320" y="140" as="sourcePoint" />
            <mxPoint x="320" y="380" as="targetPoint" />
          </mxGeometry>
        </mxCell>
        <mxCell id="1eCGUJyacMo2PLS7QeS--1" value="*" style="text;html=1;align=center;verticalAlign=middle;whiteSpace=wrap;rounded=0;" parent="1" vertex="1">
          <mxGeometry x="50" y="140" width="60" height="30" as="geometry" />
        </mxCell>
        <mxCell id="cUmQrSe35AVpuAPvbp9K-4" value="*" style="text;html=1;align=center;verticalAlign=middle;whiteSpace=wrap;rounded=0;" parent="1" vertex="1">
          <mxGeometry x="640" y="190" width="60" height="30" as="geometry" />
        </mxCell>
        <mxCell id="mQSDM0axjjIzorObbkHt-16" value="*" style="text;html=1;align=center;verticalAlign=middle;whiteSpace=wrap;rounded=0;" parent="1" vertex="1">
          <mxGeometry x="300" y="370" width="60" height="30" as="geometry" />
        </mxCell>
      </root>
    </mxGraphModel>
  </diagram>
  <diagram id="SQNaEG_IIEFuLpYFArek" name="Alt">
    <mxGraphModel dx="1877" dy="530" grid="1" gridSize="10" guides="1" tooltips="1" connect="1" arrows="1" fold="1" page="1" pageScale="1" pageWidth="827" pageHeight="1169" math="0" shadow="0">
      <root>
        <mxCell id="0" />
        <mxCell id="1" parent="0" />
        <mxCell id="WCOPwi6j_VP5ZeXkBAKM-1" value="Тренер" style="swimlane;fontStyle=0;childLayout=stackLayout;horizontal=1;startSize=30;horizontalStack=0;resizeParent=1;resizeParentMax=0;resizeLast=0;collapsible=1;marginBottom=0;whiteSpace=wrap;html=1;" vertex="1" parent="1">
          <mxGeometry x="-250" y="610" width="140" height="70" as="geometry" />
        </mxCell>
        <mxCell id="WCOPwi6j_VP5ZeXkBAKM-2" value="Индивидуальные достижения" style="text;strokeColor=none;fillColor=none;align=left;verticalAlign=middle;spacingLeft=4;spacingRight=4;overflow=hidden;points=[[0,0.5],[1,0.5]];portConstraint=eastwest;rotatable=0;whiteSpace=wrap;html=1;" vertex="1" parent="WCOPwi6j_VP5ZeXkBAKM-1">
          <mxGeometry y="30" width="140" height="40" as="geometry" />
        </mxCell>
        <mxCell id="WCOPwi6j_VP5ZeXkBAKM-3" value="" style="edgeStyle=entityRelationEdgeStyle;fontSize=12;html=1;endArrow=none;rounded=0;endFill=0;" edge="1" parent="1" source="WCOPwi6j_VP5ZeXkBAKM-1" target="WCOPwi6j_VP5ZeXkBAKM-5">
          <mxGeometry width="100" height="100" relative="1" as="geometry">
            <mxPoint x="90" y="880" as="sourcePoint" />
            <mxPoint x="30" y="830" as="targetPoint" />
            <Array as="points">
              <mxPoint x="-170" y="955" />
            </Array>
          </mxGeometry>
        </mxCell>
        <mxCell id="WCOPwi6j_VP5ZeXkBAKM-4" value="*" style="text;html=1;align=center;verticalAlign=middle;resizable=0;points=[];autosize=1;strokeColor=none;fillColor=none;" vertex="1" parent="1">
          <mxGeometry x="-110" y="623" width="30" height="30" as="geometry" />
        </mxCell>
        <mxCell id="WCOPwi6j_VP5ZeXkBAKM-5" value="Учетная запись" style="swimlane;fontStyle=0;childLayout=stackLayout;horizontal=1;startSize=30;horizontalStack=0;resizeParent=1;resizeParentMax=0;resizeLast=0;collapsible=1;marginBottom=0;whiteSpace=wrap;html=1;" vertex="1" parent="1">
          <mxGeometry x="-250" y="700" width="140" height="340" as="geometry" />
        </mxCell>
        <mxCell id="WCOPwi6j_VP5ZeXkBAKM-6" value="*Логин" style="text;strokeColor=none;fillColor=none;align=left;verticalAlign=middle;spacingLeft=4;spacingRight=4;overflow=hidden;points=[[0,0.5],[1,0.5]];portConstraint=eastwest;rotatable=0;whiteSpace=wrap;html=1;" vertex="1" parent="WCOPwi6j_VP5ZeXkBAKM-5">
          <mxGeometry y="30" width="140" height="30" as="geometry" />
        </mxCell>
        <mxCell id="WCOPwi6j_VP5ZeXkBAKM-7" value="Пароль" style="text;strokeColor=none;fillColor=none;align=left;verticalAlign=middle;spacingLeft=4;spacingRight=4;overflow=hidden;points=[[0,0.5],[1,0.5]];portConstraint=eastwest;rotatable=0;whiteSpace=wrap;html=1;" vertex="1" parent="WCOPwi6j_VP5ZeXkBAKM-5">
          <mxGeometry y="60" width="140" height="30" as="geometry" />
        </mxCell>
        <mxCell id="WCOPwi6j_VP5ZeXkBAKM-8" value="ФИО" style="text;strokeColor=none;fillColor=none;align=left;verticalAlign=middle;spacingLeft=4;spacingRight=4;overflow=hidden;points=[[0,0.5],[1,0.5]];portConstraint=eastwest;rotatable=0;whiteSpace=wrap;html=1;" vertex="1" parent="WCOPwi6j_VP5ZeXkBAKM-5">
          <mxGeometry y="90" width="140" height="30" as="geometry" />
        </mxCell>
        <mxCell id="WCOPwi6j_VP5ZeXkBAKM-9" value="Пол" style="text;strokeColor=none;fillColor=none;align=left;verticalAlign=middle;spacingLeft=4;spacingRight=4;overflow=hidden;points=[[0,0.5],[1,0.5]];portConstraint=eastwest;rotatable=0;whiteSpace=wrap;html=1;" vertex="1" parent="WCOPwi6j_VP5ZeXkBAKM-5">
          <mxGeometry y="120" width="140" height="40" as="geometry" />
        </mxCell>
        <mxCell id="WCOPwi6j_VP5ZeXkBAKM-10" value="Рост" style="text;strokeColor=none;fillColor=none;align=left;verticalAlign=middle;spacingLeft=4;spacingRight=4;overflow=hidden;points=[[0,0.5],[1,0.5]];portConstraint=eastwest;rotatable=0;whiteSpace=wrap;html=1;" vertex="1" parent="WCOPwi6j_VP5ZeXkBAKM-5">
          <mxGeometry y="160" width="140" height="40" as="geometry" />
        </mxCell>
        <mxCell id="WCOPwi6j_VP5ZeXkBAKM-11" value="Вес" style="text;strokeColor=none;fillColor=none;align=left;verticalAlign=middle;spacingLeft=4;spacingRight=4;overflow=hidden;points=[[0,0.5],[1,0.5]];portConstraint=eastwest;rotatable=0;whiteSpace=wrap;html=1;" vertex="1" parent="WCOPwi6j_VP5ZeXkBAKM-5">
          <mxGeometry y="200" width="140" height="40" as="geometry" />
        </mxCell>
        <mxCell id="WCOPwi6j_VP5ZeXkBAKM-12" value="Возраст" style="text;strokeColor=none;fillColor=none;align=left;verticalAlign=middle;spacingLeft=4;spacingRight=4;overflow=hidden;points=[[0,0.5],[1,0.5]];portConstraint=eastwest;rotatable=0;whiteSpace=wrap;html=1;" vertex="1" parent="WCOPwi6j_VP5ZeXkBAKM-5">
          <mxGeometry y="240" width="140" height="40" as="geometry" />
        </mxCell>
        <mxCell id="WCOPwi6j_VP5ZeXkBAKM-13" value="Ссылка на соцсети" style="text;strokeColor=none;fillColor=none;align=left;verticalAlign=middle;spacingLeft=4;spacingRight=4;overflow=hidden;points=[[0,0.5],[1,0.5]];portConstraint=eastwest;rotatable=0;whiteSpace=wrap;html=1;" vertex="1" parent="WCOPwi6j_VP5ZeXkBAKM-5">
          <mxGeometry y="280" width="140" height="30" as="geometry" />
        </mxCell>
        <mxCell id="WCOPwi6j_VP5ZeXkBAKM-14" value="Идентификатор роли" style="text;strokeColor=none;fillColor=none;align=left;verticalAlign=middle;spacingLeft=4;spacingRight=4;overflow=hidden;points=[[0,0.5],[1,0.5]];portConstraint=eastwest;rotatable=0;whiteSpace=wrap;html=1;" vertex="1" parent="WCOPwi6j_VP5ZeXkBAKM-5">
          <mxGeometry y="310" width="140" height="30" as="geometry" />
        </mxCell>
        <mxCell id="WCOPwi6j_VP5ZeXkBAKM-15" value="Публикация" style="swimlane;fontStyle=0;childLayout=stackLayout;horizontal=1;startSize=30;horizontalStack=0;resizeParent=1;resizeParentMax=0;resizeLast=0;collapsible=1;marginBottom=0;whiteSpace=wrap;html=1;" vertex="1" parent="1">
          <mxGeometry x="-490" y="700" width="140" height="100" as="geometry" />
        </mxCell>
        <mxCell id="WCOPwi6j_VP5ZeXkBAKM-16" value="*Дата и время публикации" style="text;strokeColor=none;fillColor=none;align=left;verticalAlign=middle;spacingLeft=4;spacingRight=4;overflow=hidden;points=[[0,0.5],[1,0.5]];portConstraint=eastwest;rotatable=0;whiteSpace=wrap;html=1;" vertex="1" parent="WCOPwi6j_VP5ZeXkBAKM-15">
          <mxGeometry y="30" width="140" height="40" as="geometry" />
        </mxCell>
        <mxCell id="WCOPwi6j_VP5ZeXkBAKM-17" value="Текст" style="text;strokeColor=none;fillColor=none;align=left;verticalAlign=middle;spacingLeft=4;spacingRight=4;overflow=hidden;points=[[0,0.5],[1,0.5]];portConstraint=eastwest;rotatable=0;whiteSpace=wrap;html=1;" vertex="1" parent="WCOPwi6j_VP5ZeXkBAKM-15">
          <mxGeometry y="70" width="140" height="30" as="geometry" />
        </mxCell>
        <mxCell id="WCOPwi6j_VP5ZeXkBAKM-18" value="Отзыв" style="swimlane;fontStyle=0;childLayout=stackLayout;horizontal=1;startSize=26;horizontalStack=0;resizeParent=1;resizeParentMax=0;resizeLast=0;collapsible=1;marginBottom=0;align=center;fontSize=14;" vertex="1" parent="1">
          <mxGeometry x="-490" y="874" width="140" height="126" as="geometry" />
        </mxCell>
        <mxCell id="WCOPwi6j_VP5ZeXkBAKM-19" value="*Дата и время публикации" style="text;strokeColor=none;fillColor=none;align=left;verticalAlign=middle;spacingLeft=4;spacingRight=4;overflow=hidden;points=[[0,0.5],[1,0.5]];portConstraint=eastwest;rotatable=0;whiteSpace=wrap;html=1;" vertex="1" parent="WCOPwi6j_VP5ZeXkBAKM-18">
          <mxGeometry y="26" width="140" height="40" as="geometry" />
        </mxCell>
        <mxCell id="WCOPwi6j_VP5ZeXkBAKM-20" value="Рейтинг (кол-во звёзд)" style="text;strokeColor=none;fillColor=none;spacingLeft=4;spacingRight=4;overflow=hidden;rotatable=0;points=[[0,0.5],[1,0.5]];portConstraint=eastwest;fontSize=12;whiteSpace=wrap;html=1;" vertex="1" parent="WCOPwi6j_VP5ZeXkBAKM-18">
          <mxGeometry y="66" width="140" height="30" as="geometry" />
        </mxCell>
        <mxCell id="WCOPwi6j_VP5ZeXkBAKM-21" value="Комментарий" style="text;strokeColor=none;fillColor=none;spacingLeft=4;spacingRight=4;overflow=hidden;rotatable=0;points=[[0,0.5],[1,0.5]];portConstraint=eastwest;fontSize=12;whiteSpace=wrap;html=1;" vertex="1" parent="WCOPwi6j_VP5ZeXkBAKM-18">
          <mxGeometry y="96" width="140" height="30" as="geometry" />
        </mxCell>
        <mxCell id="WCOPwi6j_VP5ZeXkBAKM-22" value="*" style="text;html=1;align=center;verticalAlign=middle;whiteSpace=wrap;rounded=0;" vertex="1" parent="1">
          <mxGeometry x="-370" y="720" width="60" height="30" as="geometry" />
        </mxCell>
        <mxCell id="WCOPwi6j_VP5ZeXkBAKM-23" value="" style="edgeStyle=entityRelationEdgeStyle;fontSize=12;html=1;endArrow=ERmany;rounded=0;" edge="1" parent="1" source="WCOPwi6j_VP5ZeXkBAKM-1" target="WCOPwi6j_VP5ZeXkBAKM-15">
          <mxGeometry width="100" height="100" relative="1" as="geometry">
            <mxPoint x="-500" y="450" as="sourcePoint" />
            <mxPoint x="-500" y="665" as="targetPoint" />
          </mxGeometry>
        </mxCell>
        <mxCell id="WCOPwi6j_VP5ZeXkBAKM-24" value="" style="edgeStyle=elbowEdgeStyle;fontSize=12;html=1;endArrow=ERmany;rounded=0;exitX=0;exitY=0.5;exitDx=0;exitDy=0;entryX=0;entryY=0.5;entryDx=0;entryDy=0;" edge="1" parent="1" source="WCOPwi6j_VP5ZeXkBAKM-17" target="WCOPwi6j_VP5ZeXkBAKM-19">
          <mxGeometry width="100" height="100" relative="1" as="geometry">
            <mxPoint x="-520" y="800" as="sourcePoint" />
            <mxPoint x="-530" y="960" as="targetPoint" />
            <Array as="points">
              <mxPoint x="-510" y="880" />
            </Array>
          </mxGeometry>
        </mxCell>
        <mxCell id="WCOPwi6j_VP5ZeXkBAKM-25" value="" style="edgeStyle=entityRelationEdgeStyle;fontSize=12;html=1;endArrow=ERmany;rounded=0;" edge="1" parent="1" source="WCOPwi6j_VP5ZeXkBAKM-5" target="WCOPwi6j_VP5ZeXkBAKM-20">
          <mxGeometry width="100" height="100" relative="1" as="geometry">
            <mxPoint x="-320" y="1100" as="sourcePoint" />
            <mxPoint x="-320" y="1293" as="targetPoint" />
            <Array as="points">
              <mxPoint x="-380" y="1185" />
              <mxPoint x="-330" y="1185" />
            </Array>
          </mxGeometry>
        </mxCell>
        <mxCell id="WCOPwi6j_VP5ZeXkBAKM-26" value="Упражнение" style="swimlane;fontStyle=0;childLayout=stackLayout;horizontal=1;startSize=30;horizontalStack=0;resizeParent=1;resizeParentMax=0;resizeLast=0;collapsible=1;marginBottom=0;whiteSpace=wrap;html=1;" vertex="1" parent="1">
          <mxGeometry x="-770" y="705" width="140" height="90" as="geometry" />
        </mxCell>
        <mxCell id="WCOPwi6j_VP5ZeXkBAKM-27" value="*Название" style="text;strokeColor=none;fillColor=none;align=left;verticalAlign=middle;spacingLeft=4;spacingRight=4;overflow=hidden;points=[[0,0.5],[1,0.5]];portConstraint=eastwest;rotatable=0;whiteSpace=wrap;html=1;" vertex="1" parent="WCOPwi6j_VP5ZeXkBAKM-26">
          <mxGeometry y="30" width="140" height="30" as="geometry" />
        </mxCell>
        <mxCell id="WCOPwi6j_VP5ZeXkBAKM-28" value="Техника выполнения" style="text;strokeColor=none;fillColor=none;align=left;verticalAlign=middle;spacingLeft=4;spacingRight=4;overflow=hidden;points=[[0,0.5],[1,0.5]];portConstraint=eastwest;rotatable=0;whiteSpace=wrap;html=1;" vertex="1" parent="WCOPwi6j_VP5ZeXkBAKM-26">
          <mxGeometry y="60" width="140" height="30" as="geometry" />
        </mxCell>
        <mxCell id="WCOPwi6j_VP5ZeXkBAKM-29" value="" style="edgeStyle=entityRelationEdgeStyle;fontSize=12;html=1;endArrow=ERmany;rounded=0;startArrow=ERmany;startFill=0;" edge="1" parent="1" source="WCOPwi6j_VP5ZeXkBAKM-26" target="WCOPwi6j_VP5ZeXkBAKM-15">
          <mxGeometry width="100" height="100" relative="1" as="geometry">
            <mxPoint x="-650" y="635" as="sourcePoint" />
            <mxPoint x="-540" y="660" as="targetPoint" />
            <Array as="points">
              <mxPoint x="-750" y="830" />
            </Array>
          </mxGeometry>
        </mxCell>
        <mxCell id="WCOPwi6j_VP5ZeXkBAKM-30" value="Нормативы" style="swimlane;fontStyle=0;childLayout=stackLayout;horizontal=1;startSize=30;horizontalStack=0;resizeParent=1;resizeParentMax=0;resizeLast=0;collapsible=1;marginBottom=0;whiteSpace=wrap;html=1;" vertex="1" parent="1">
          <mxGeometry x="-770" y="840" width="140" height="90" as="geometry" />
        </mxCell>
        <mxCell id="WCOPwi6j_VP5ZeXkBAKM-31" value="Нормативы" style="text;strokeColor=none;fillColor=none;align=left;verticalAlign=middle;spacingLeft=4;spacingRight=4;overflow=hidden;points=[[0,0.5],[1,0.5]];portConstraint=eastwest;rotatable=0;whiteSpace=wrap;html=1;" vertex="1" parent="WCOPwi6j_VP5ZeXkBAKM-30">
          <mxGeometry y="30" width="140" height="30" as="geometry" />
        </mxCell>
        <mxCell id="WCOPwi6j_VP5ZeXkBAKM-32" value="Мировой рекорд" style="text;strokeColor=none;fillColor=none;align=left;verticalAlign=middle;spacingLeft=4;spacingRight=4;overflow=hidden;points=[[0,0.5],[1,0.5]];portConstraint=eastwest;rotatable=0;whiteSpace=wrap;html=1;" vertex="1" parent="WCOPwi6j_VP5ZeXkBAKM-30">
          <mxGeometry y="60" width="140" height="30" as="geometry" />
        </mxCell>
        <mxCell id="WCOPwi6j_VP5ZeXkBAKM-33" value="" style="edgeStyle=elbowEdgeStyle;fontSize=12;html=1;endArrow=ERmany;rounded=0;" edge="1" parent="1" source="WCOPwi6j_VP5ZeXkBAKM-26" target="WCOPwi6j_VP5ZeXkBAKM-30">
          <mxGeometry width="100" height="100" relative="1" as="geometry">
            <mxPoint x="-570" y="800" as="sourcePoint" />
            <mxPoint x="-570" y="1001" as="targetPoint" />
          </mxGeometry>
        </mxCell>
        <mxCell id="WCOPwi6j_VP5ZeXkBAKM-34" value="Результат выполнения упражнения" style="swimlane;fontStyle=0;childLayout=stackLayout;horizontal=1;startSize=30;horizontalStack=0;resizeParent=1;resizeParentMax=0;resizeLast=0;collapsible=1;marginBottom=0;whiteSpace=wrap;html=1;" vertex="1" parent="1">
          <mxGeometry x="-770" y="1010" width="140" height="170" as="geometry" />
        </mxCell>
        <mxCell id="WCOPwi6j_VP5ZeXkBAKM-35" value="*Дата выполнения" style="text;strokeColor=none;fillColor=none;align=left;verticalAlign=middle;spacingLeft=4;spacingRight=4;overflow=hidden;points=[[0,0.5],[1,0.5]];portConstraint=eastwest;rotatable=0;whiteSpace=wrap;html=1;" vertex="1" parent="WCOPwi6j_VP5ZeXkBAKM-34">
          <mxGeometry y="30" width="140" height="30" as="geometry" />
        </mxCell>
        <mxCell id="WCOPwi6j_VP5ZeXkBAKM-36" value="Вес" style="text;strokeColor=none;fillColor=none;align=left;verticalAlign=middle;spacingLeft=4;spacingRight=4;overflow=hidden;points=[[0,0.5],[1,0.5]];portConstraint=eastwest;rotatable=0;whiteSpace=wrap;html=1;" vertex="1" parent="WCOPwi6j_VP5ZeXkBAKM-34">
          <mxGeometry y="60" width="140" height="30" as="geometry" />
        </mxCell>
        <mxCell id="WCOPwi6j_VP5ZeXkBAKM-37" value="Количество повторений" style="text;strokeColor=none;fillColor=none;align=left;verticalAlign=middle;spacingLeft=4;spacingRight=4;overflow=hidden;points=[[0,0.5],[1,0.5]];portConstraint=eastwest;rotatable=0;whiteSpace=wrap;html=1;" vertex="1" parent="WCOPwi6j_VP5ZeXkBAKM-34">
          <mxGeometry y="90" width="140" height="40" as="geometry" />
        </mxCell>
        <mxCell id="WCOPwi6j_VP5ZeXkBAKM-38" value="Одноповторный максимум" style="text;strokeColor=none;fillColor=none;align=left;verticalAlign=middle;spacingLeft=4;spacingRight=4;overflow=hidden;points=[[0,0.5],[1,0.5]];portConstraint=eastwest;rotatable=0;whiteSpace=wrap;html=1;" vertex="1" parent="WCOPwi6j_VP5ZeXkBAKM-34">
          <mxGeometry y="130" width="140" height="40" as="geometry" />
        </mxCell>
        <mxCell id="WCOPwi6j_VP5ZeXkBAKM-39" value="" style="edgeStyle=elbowEdgeStyle;fontSize=12;html=1;endArrow=ERmany;rounded=0;" edge="1" parent="1" source="WCOPwi6j_VP5ZeXkBAKM-5" target="WCOPwi6j_VP5ZeXkBAKM-34">
          <mxGeometry width="100" height="100" relative="1" as="geometry">
            <mxPoint x="-190" y="640" as="sourcePoint" />
            <mxPoint x="-260" y="520" as="targetPoint" />
            <Array as="points">
              <mxPoint x="-210" y="1100" />
            </Array>
          </mxGeometry>
        </mxCell>
        <mxCell id="WCOPwi6j_VP5ZeXkBAKM-40" value="" style="edgeStyle=elbowEdgeStyle;fontSize=12;html=1;endArrow=ERmany;rounded=0;" edge="1" parent="1" source="WCOPwi6j_VP5ZeXkBAKM-26" target="WCOPwi6j_VP5ZeXkBAKM-34">
          <mxGeometry width="100" height="100" relative="1" as="geometry">
            <mxPoint x="-570" y="927" as="sourcePoint" />
            <mxPoint x="-990" y="987" as="targetPoint" />
            <Array as="points">
              <mxPoint x="-790" y="960" />
            </Array>
          </mxGeometry>
        </mxCell>
        <mxCell id="WCOPwi6j_VP5ZeXkBAKM-41" value="*" style="text;html=1;align=center;verticalAlign=middle;resizable=0;points=[];autosize=1;strokeColor=none;fillColor=none;" vertex="1" parent="1">
          <mxGeometry x="-631" y="1075" width="30" height="30" as="geometry" />
        </mxCell>
        <mxCell id="WCOPwi6j_VP5ZeXkBAKM-42" value="*" style="text;html=1;align=center;verticalAlign=middle;resizable=0;points=[];autosize=1;strokeColor=none;fillColor=none;" vertex="1" parent="1">
          <mxGeometry x="-795" y="1064" width="30" height="30" as="geometry" />
        </mxCell>
        <mxCell id="WCOPwi6j_VP5ZeXkBAKM-43" value="*" style="text;html=1;align=center;verticalAlign=middle;whiteSpace=wrap;rounded=0;" vertex="1" parent="1">
          <mxGeometry x="-530" y="900" width="60" height="30" as="geometry" />
        </mxCell>
        <mxCell id="WCOPwi6j_VP5ZeXkBAKM-44" value="*" style="text;html=1;align=center;verticalAlign=middle;whiteSpace=wrap;rounded=0;" vertex="1" parent="1">
          <mxGeometry x="-370" y="930" width="60" height="30" as="geometry" />
        </mxCell>
        <mxCell id="WCOPwi6j_VP5ZeXkBAKM-45" value="*" style="text;html=1;align=center;verticalAlign=middle;whiteSpace=wrap;rounded=0;" vertex="1" parent="1">
          <mxGeometry x="-710" y="820" width="60" height="30" as="geometry" />
        </mxCell>
      </root>
    </mxGraphModel>
  </diagram>
</mxfile>
